# xmcd
#
# Track frame offsets: 
#        150
#        22850
#        51965
#        67158
#        95313
#        123995
#        150608
#        173690
#        196445
#
# Disc length: 3101 seconds
#
# Revision: 3
# Processed by: cddbd v1.5.2PL0 Copyright (c) Steve Scherf et al.
# Submitted via: ExactAudioCopyFreeDBPlugin 1.0
#
DISCID=700c1b09
DTITLE=Etta James-Eddie "Cleanhead" Vinson - Blues In The Night
DYEAR=1986
DGENRE=Blues
TTITLE0=Kidney Stew
TTITLE1=When My Baby Left Me
TTITLE2=Railroad Porter Blues
TTITLE3=Something's Got a Hold on Me
TTITLE4=Medley - At Last -Trust Me - Sunday Kind of Love
TTITLE5=I Just Wanna Make Love to You
TTITLE6=Please Send Me Someone to Love
TTITLE7=Lover Man (Oh Where Can You Be)
TTITLE8=Misty
EXTD=Etta James - vocals\nEddie "Cleanhead" Vinson - vocals and alto s
EXTD=ax\nRed Holloway - M.C., leader - alto, tenor,and baritone saxes\n
EXTD=Jack Mc Duff- Hammond B-3\nShuggie Otis - guitar\nRichard Reid - 
EXTD=accustic bass , bass guitar\nPaul Humphrey - drums YEAR: 1986
EXTT0=
EXTT1=
EXTT2=
EXTT3=
EXTT4=
EXTT5=
EXTT6=
EXTT7=
EXTT8=
PLAYORDER=
